<svg width="32" height="32" viewBox="0 0 32 32" fill="none" xmlns="http://www.w3.org/2000/svg">
<rect width="32" height="32" fill="white"/>
<rect width="32" height="32" fill="#288EC5"/>
<path d="M20.4454 22.8299H7.29701C6.02969 22.8299 5 21.8014 5 20.5355V7.2944C5 6.02852 6.02969 5 7.29701 5H20.4454C22.3463 5 23.8513 6.50323 23.8513 8.40204H21.5543C21.5543 7.7691 21.079 7.2944 20.4454 7.2944H7.29701V20.5355H13.8712H20.4454C21.079 20.5355 21.5543 20.0608 21.5543 19.4278H23.8513C23.8513 21.3267 22.3463 22.8299 20.4454 22.8299Z" fill="white"/>
<path d="M27.2574 22.4313L22.109 16.5766H13.3962C13.317 16.5766 13.2378 16.4975 13.2378 16.4184V15.3108C13.2378 14.6778 13.713 14.2031 14.3467 14.2031H22.7426C23.0595 14.2031 23.3763 14.3614 23.5347 14.5987L29 20.849L27.2574 22.4313Z" fill="white"/>
<path d="M19.4952 29.0009C20.7639 29.0009 21.7923 27.9737 21.7923 26.7065C21.7923 25.4393 20.7639 24.4121 19.4952 24.4121C18.2266 24.4121 17.1982 25.4393 17.1982 26.7065C17.1982 27.9737 18.2266 29.0009 19.4952 29.0009Z" fill="#494949"/>
<path d="M10.941 29.0009C12.2097 29.0009 13.2381 27.9737 13.2381 26.7065C13.2381 25.4393 12.2097 24.4121 10.941 24.4121C9.67245 24.4121 8.64404 25.4393 8.64404 26.7065C8.64404 27.9737 9.67245 29.0009 10.941 29.0009Z" fill="#494949"/>
</svg>
