<svg width="16" height="16" viewBox="0 0 16 16" fill="none" xmlns="http://www.w3.org/2000/svg">
<g clip-path="url(#clip0_1070_577)">
<rect width="16" height="16" fill="white"/>
<rect width="32" height="32" fill="#288EC5"/>
<path d="M10.2227 11.4149H3.6485C3.01485 11.4149 2.5 10.9007 2.5 10.2677V3.6472C2.5 3.01426 3.01485 2.5 3.6485 2.5H10.2227C11.1732 2.5 11.9256 3.25161 11.9256 4.20102H10.7771C10.7771 3.88455 10.5395 3.6472 10.2227 3.6472H3.6485V10.2677H6.9356H10.2227C10.5395 10.2677 10.7771 10.0304 10.7771 9.71392H11.9256C11.9256 10.6633 11.1732 11.4149 10.2227 11.4149Z" fill="white"/>
<path d="M13.6287 11.2157L11.0545 8.28832H6.6981C6.6585 8.28832 6.6189 8.24876 6.6189 8.2092V7.65538C6.6189 7.33891 6.85652 7.10156 7.17335 7.10156H11.3713C11.5297 7.10156 11.6881 7.18068 11.7674 7.29936L14.5 10.4245L13.6287 11.2157Z" fill="white"/>
<path d="M9.74762 14.5004C10.3819 14.5004 10.8961 13.9868 10.8961 13.3533C10.8961 12.7197 10.3819 12.2061 9.74762 12.2061C9.11332 12.2061 8.59912 12.7197 8.59912 13.3533C8.59912 13.9868 9.11332 14.5004 9.74762 14.5004Z" fill="#494949"/>
<path d="M5.47052 14.5004C6.10483 14.5004 6.61903 13.9868 6.61903 13.3533C6.61903 12.7197 6.10483 12.2061 5.47052 12.2061C4.83622 12.2061 4.32202 12.7197 4.32202 13.3533C4.32202 13.9868 4.83622 14.5004 5.47052 14.5004Z" fill="#494949"/>
</g>
<defs>
<clipPath id="clip0_1070_577">
<rect width="16" height="16" fill="white"/>
</clipPath>
</defs>
</svg>
